<svg id="visual" viewBox="0 0 900 600" width="900" height="600" xmlns="http://www.w3.org/2000/svg" xmlns:xlink="http://www.w3.org/1999/xlink" version="1.1"><g stroke-width="1" stroke-linejoin="bevel"><path d="M449 311.9L527 282.1L471 245.1Z" fill="#6a3670" stroke="#6a3670"></path><path d="M449 311.9L515 363.9L527 282.1Z" fill="#2e3065" stroke="#2e3065"></path><path d="M527 282.1L508 165.4L471 245.1Z" fill="#002b5b" stroke="#002b5b"></path><path d="M508 165.4L426 174.4L471 245.1Z" fill="#2e3065" stroke="#2e3065"></path><path d="M322 295.1L360 333.9L449 311.9Z" fill="#002b5b" stroke="#002b5b"></path><path d="M515 363.9L612 261.1L527 282.1Z" fill="#d15f56" stroke="#d15f56"></path><path d="M527 282.1L612 261.1L508 165.4Z" fill="#2e3065" stroke="#2e3065"></path><path d="M322 295.1L449 311.9L471 245.1Z" fill="#c3505f" stroke="#c3505f"></path><path d="M420 445.6L513 435.6L515 363.9Z" fill="#9d3e6d" stroke="#9d3e6d"></path><path d="M420 445.6L515 363.9L449 311.9Z" fill="#d15f56" stroke="#d15f56"></path><path d="M515 363.9L659 357.9L612 261.1Z" fill="#b24567" stroke="#b24567"></path><path d="M426 174.4L322 295.1L471 245.1Z" fill="#2e3065" stroke="#2e3065"></path><path d="M395 455.6L420 445.6L360 333.9Z" fill="#002b5b" stroke="#002b5b"></path><path d="M360 333.9L420 445.6L449 311.9Z" fill="#6a3670" stroke="#6a3670"></path><path d="M338 105.7L354 167.4L426 174.4Z" fill="#002b5b" stroke="#002b5b"></path><path d="M426 174.4L354 167.4L322 295.1Z" fill="#002b5b" stroke="#002b5b"></path><path d="M612 261.1L645 194.4L508 165.4Z" fill="#b24567" stroke="#b24567"></path><path d="M635 433.6L659 357.9L515 363.9Z" fill="#6a3670" stroke="#6a3670"></path><path d="M612 261.1L738 250.1L645 194.4Z" fill="#d15f56" stroke="#d15f56"></path><path d="M300 450.6L395 455.6L360 333.9Z" fill="#002b5b" stroke="#002b5b"></path><path d="M420 445.6L424 517.3L513 435.6Z" fill="#9d3e6d" stroke="#9d3e6d"></path><path d="M645 194.4L616 123.7L508 165.4Z" fill="#853970" stroke="#853970"></path><path d="M508 165.4L462 75.7L426 174.4Z" fill="#4e336d" stroke="#4e336d"></path><path d="M574 550.3L635 433.6L513 435.6Z" fill="#d15f56" stroke="#d15f56"></path><path d="M513 435.6L635 433.6L515 363.9Z" fill="#c3505f" stroke="#c3505f"></path><path d="M532 68.7L462 75.7L508 165.4Z" fill="#6a3670" stroke="#6a3670"></path><path d="M635 433.6L697 351.9L659 357.9Z" fill="#6a3670" stroke="#6a3670"></path><path d="M659 357.9L697 351.9L612 261.1Z" fill="#b24567" stroke="#b24567"></path><path d="M616 123.7L532 68.7L508 165.4Z" fill="#6a3670" stroke="#6a3670"></path><path d="M462 75.7L338 105.7L426 174.4Z" fill="#c3505f" stroke="#c3505f"></path><path d="M354 167.4L269 197.4L322 295.1Z" fill="#de8344" stroke="#de8344"></path><path d="M338 105.7L269 197.4L354 167.4Z" fill="#002b5b" stroke="#002b5b"></path><path d="M322 295.1L258 379.9L360 333.9Z" fill="#b24567" stroke="#b24567"></path><path d="M328 506.3L424 517.3L395 455.6Z" fill="#853970" stroke="#853970"></path><path d="M395 455.6L424 517.3L420 445.6Z" fill="#d15f56" stroke="#d15f56"></path><path d="M233 272.1L258 379.9L322 295.1Z" fill="#d15f56" stroke="#d15f56"></path><path d="M258 379.9L300 450.6L360 333.9Z" fill="#002b5b" stroke="#002b5b"></path><path d="M269 197.4L233 272.1L322 295.1Z" fill="#b24567" stroke="#b24567"></path><path d="M697 351.9L738 250.1L612 261.1Z" fill="#d15f56" stroke="#d15f56"></path><path d="M645 194.4L730 109.7L616 123.7Z" fill="#4e336d" stroke="#4e336d"></path><path d="M271 484.3L328 506.3L300 450.6Z" fill="#d15f56" stroke="#d15f56"></path><path d="M300 450.6L328 506.3L395 455.6Z" fill="#4e336d" stroke="#4e336d"></path><path d="M424 517.3L574 550.3L513 435.6Z" fill="#9d3e6d" stroke="#9d3e6d"></path><path d="M635 433.6L738 463.6L697 351.9Z" fill="#6a3670" stroke="#6a3670"></path><path d="M525 600L574 550.3L424 517.3Z" fill="#c3505f" stroke="#c3505f"></path><path d="M370 0L308 62.7L338 105.7Z" fill="#c3505f" stroke="#c3505f"></path><path d="M338 105.7L308 62.7L269 197.4Z" fill="#c3505f" stroke="#c3505f"></path><path d="M269 197.4L169 260.1L233 272.1Z" fill="#4e336d" stroke="#4e336d"></path><path d="M413 0L338 105.7L462 75.7Z" fill="#c3505f" stroke="#c3505f"></path><path d="M214 400.6L271 484.3L300 450.6Z" fill="#da704d" stroke="#da704d"></path><path d="M214 400.6L300 450.6L258 379.9Z" fill="#853970" stroke="#853970"></path><path d="M574 550.3L650 526.3L635 433.6Z" fill="#002b5b" stroke="#002b5b"></path><path d="M697 351.9L824 323.9L738 250.1Z" fill="#d15f56" stroke="#d15f56"></path><path d="M233 272.1L214 400.6L258 379.9Z" fill="#d15f56" stroke="#d15f56"></path><path d="M738 250.1L745 151.4L645 194.4Z" fill="#da704d" stroke="#da704d"></path><path d="M613 0L566 0L532 68.7Z" fill="#9d3e6d" stroke="#9d3e6d"></path><path d="M566 0L462 75.7L532 68.7Z" fill="#6a3670" stroke="#6a3670"></path><path d="M566 0L413 0L462 75.7Z" fill="#d15f56" stroke="#d15f56"></path><path d="M613 0L532 68.7L616 123.7Z" fill="#002b5b" stroke="#002b5b"></path><path d="M745 151.4L730 109.7L645 194.4Z" fill="#002b5b" stroke="#002b5b"></path><path d="M413 0L370 0L338 105.7Z" fill="#c3505f" stroke="#c3505f"></path><path d="M706 515.3L738 463.6L635 433.6Z" fill="#002b5b" stroke="#002b5b"></path><path d="M738 250.1L822 180.4L745 151.4Z" fill="#853970" stroke="#853970"></path><path d="M738 463.6L776 390.6L697 351.9Z" fill="#b24567" stroke="#b24567"></path><path d="M696 0L613 0L616 123.7Z" fill="#d15f56" stroke="#d15f56"></path><path d="M326 600L424 517.3L328 506.3Z" fill="#d15f56" stroke="#d15f56"></path><path d="M326 600L462 600L424 517.3Z" fill="#853970" stroke="#853970"></path><path d="M574 550.3L617 600L650 526.3Z" fill="#4e336d" stroke="#4e336d"></path><path d="M154 139.4L169 260.1L269 197.4Z" fill="#de8344" stroke="#de8344"></path><path d="M233 272.1L141 368.9L214 400.6Z" fill="#de8344" stroke="#de8344"></path><path d="M462 600L525 600L424 517.3Z" fill="#6a3670" stroke="#6a3670"></path><path d="M650 526.3L706 515.3L635 433.6Z" fill="#d15f56" stroke="#d15f56"></path><path d="M699 600L706 515.3L650 526.3Z" fill="#9d3e6d" stroke="#9d3e6d"></path><path d="M824 323.9L817 256.1L738 250.1Z" fill="#6a3670" stroke="#6a3670"></path><path d="M745 151.4L843 55.7L730 109.7Z" fill="#6a3670" stroke="#6a3670"></path><path d="M525 600L617 600L574 550.3Z" fill="#002b5b" stroke="#002b5b"></path><path d="M900 352.9L824 323.9L900 422.6Z" fill="#de8344" stroke="#de8344"></path><path d="M776 390.6L824 323.9L697 351.9Z" fill="#4e336d" stroke="#4e336d"></path><path d="M257 600L328 506.3L271 484.3Z" fill="#c3505f" stroke="#c3505f"></path><path d="M257 600L326 600L328 506.3Z" fill="#6a3670" stroke="#6a3670"></path><path d="M169 260.1L141 368.9L233 272.1Z" fill="#d15f56" stroke="#d15f56"></path><path d="M214 400.6L171 478.3L271 484.3Z" fill="#b24567" stroke="#b24567"></path><path d="M900 261.1L822 180.4L817 256.1Z" fill="#da704d" stroke="#da704d"></path><path d="M817 256.1L822 180.4L738 250.1Z" fill="#b24567" stroke="#b24567"></path><path d="M730 109.7L696 0L616 123.7Z" fill="#de8344" stroke="#de8344"></path><path d="M792 0L696 0L730 109.7Z" fill="#002b5b" stroke="#002b5b"></path><path d="M308 62.7L163 121.7L269 197.4Z" fill="#de8344" stroke="#de8344"></path><path d="M169 260.1L87 271.1L141 368.9Z" fill="#853970" stroke="#853970"></path><path d="M232 0L163 121.7L308 62.7Z" fill="#2e3065" stroke="#2e3065"></path><path d="M163 121.7L154 139.4L269 197.4Z" fill="#c3505f" stroke="#c3505f"></path><path d="M141 368.9L171 478.3L214 400.6Z" fill="#6a3670" stroke="#6a3670"></path><path d="M706 515.3L818 524.3L738 463.6Z" fill="#2e3065" stroke="#2e3065"></path><path d="M738 463.6L818 524.3L776 390.6Z" fill="#002b5b" stroke="#002b5b"></path><path d="M617 600L699 600L650 526.3Z" fill="#d15f56" stroke="#d15f56"></path><path d="M370 0L232 0L308 62.7Z" fill="#c3505f" stroke="#c3505f"></path><path d="M171 478.3L257 600L271 484.3Z" fill="#6a3670" stroke="#6a3670"></path><path d="M69 192.4L169 260.1L154 139.4Z" fill="#002b5b" stroke="#002b5b"></path><path d="M69 192.4L87 271.1L169 260.1Z" fill="#002b5b" stroke="#002b5b"></path><path d="M141 368.9L93 414.6L171 478.3Z" fill="#da704d" stroke="#da704d"></path><path d="M184 0L122 110.7L163 121.7Z" fill="#2e3065" stroke="#2e3065"></path><path d="M163 121.7L122 110.7L154 139.4Z" fill="#853970" stroke="#853970"></path><path d="M699 600L818 524.3L706 515.3Z" fill="#6a3670" stroke="#6a3670"></path><path d="M72 307.9L93 414.6L141 368.9Z" fill="#de8344" stroke="#de8344"></path><path d="M171 478.3L146 600L257 600Z" fill="#6a3670" stroke="#6a3670"></path><path d="M87 271.1L72 307.9L141 368.9Z" fill="#b24567" stroke="#b24567"></path><path d="M0 245.1L72 307.9L87 271.1Z" fill="#002b5b" stroke="#002b5b"></path><path d="M232 0L184 0L163 121.7Z" fill="#4e336d" stroke="#4e336d"></path><path d="M824 323.9L900 261.1L817 256.1Z" fill="#6a3670" stroke="#6a3670"></path><path d="M843 55.7L792 0L730 109.7Z" fill="#da704d" stroke="#da704d"></path><path d="M900 352.9L900 261.1L824 323.9Z" fill="#b24567" stroke="#b24567"></path><path d="M843 55.7L745 151.4L822 180.4Z" fill="#c3505f" stroke="#c3505f"></path><path d="M900 422.6L824 323.9L776 390.6Z" fill="#b24567" stroke="#b24567"></path><path d="M0 245.1L69 192.4L0 181.4Z" fill="#de8344" stroke="#de8344"></path><path d="M122 110.7L69 192.4L154 139.4Z" fill="#853970" stroke="#853970"></path><path d="M900 173.4L843 55.7L822 180.4Z" fill="#2e3065" stroke="#2e3065"></path><path d="M900 261.1L900 173.4L822 180.4Z" fill="#da704d" stroke="#da704d"></path><path d="M818 524.3L900 422.6L776 390.6Z" fill="#b24567" stroke="#b24567"></path><path d="M121 600L146 600L171 478.3Z" fill="#d15f56" stroke="#d15f56"></path><path d="M818 524.3L900 498.3L900 422.6Z" fill="#853970" stroke="#853970"></path><path d="M900 600L900 498.3L818 524.3Z" fill="#d15f56" stroke="#d15f56"></path><path d="M699 600L834 600L818 524.3Z" fill="#2e3065" stroke="#2e3065"></path><path d="M0 446.6L54 484.3L93 414.6Z" fill="#4e336d" stroke="#4e336d"></path><path d="M93 414.6L54 484.3L171 478.3Z" fill="#c3505f" stroke="#c3505f"></path><path d="M0 379.9L93 414.6L72 307.9Z" fill="#2e3065" stroke="#2e3065"></path><path d="M900 173.4L900 49.7L843 55.7Z" fill="#853970" stroke="#853970"></path><path d="M843 55.7L900 0L792 0Z" fill="#853970" stroke="#853970"></path><path d="M54 484.3L121 600L171 478.3Z" fill="#c3505f" stroke="#c3505f"></path><path d="M0 181.4L69 192.4L0 90.7Z" fill="#2e3065" stroke="#2e3065"></path><path d="M69 192.4L0 245.1L87 271.1Z" fill="#9d3e6d" stroke="#9d3e6d"></path><path d="M0 245.1L0 379.9L72 307.9Z" fill="#853970" stroke="#853970"></path><path d="M0 90.7L69 192.4L122 110.7Z" fill="#853970" stroke="#853970"></path><path d="M184 0L71 0L122 110.7Z" fill="#d15f56" stroke="#d15f56"></path><path d="M900 49.7L900 0L843 55.7Z" fill="#da704d" stroke="#da704d"></path><path d="M0 379.9L0 446.6L93 414.6Z" fill="#002b5b" stroke="#002b5b"></path><path d="M54 484.3L0 540.3L121 600Z" fill="#853970" stroke="#853970"></path><path d="M834 600L900 600L818 524.3Z" fill="#b24567" stroke="#b24567"></path><path d="M71 0L0 90.7L122 110.7Z" fill="#b24567" stroke="#b24567"></path><path d="M0 446.6L0 540.3L54 484.3Z" fill="#6a3670" stroke="#6a3670"></path><path d="M71 0L0 0L0 90.7Z" fill="#4e336d" stroke="#4e336d"></path><path d="M0 540.3L0 600L121 600Z" fill="#9d3e6d" stroke="#9d3e6d"></path></g></svg>