<svg id="visual" viewBox="0 0 900 600" width="900" height="600" xmlns="http://www.w3.org/2000/svg" xmlns:xlink="http://www.w3.org/1999/xlink" version="1.1"><rect x="0" y="0" width="900" height="600" fill="#002B5B"></rect><defs><linearGradient id="grad1_0" x1="33.3%" y1="0%" x2="100%" y2="100%"><stop offset="20%" stop-color="#de8344" stop-opacity="1"></stop><stop offset="80%" stop-color="#de8344" stop-opacity="1"></stop></linearGradient></defs><defs><linearGradient id="grad1_1" x1="33.3%" y1="0%" x2="100%" y2="100%"><stop offset="20%" stop-color="#de8344" stop-opacity="1"></stop><stop offset="80%" stop-color="#be4c62" stop-opacity="1"></stop></linearGradient></defs><defs><linearGradient id="grad1_2" x1="33.3%" y1="0%" x2="100%" y2="100%"><stop offset="20%" stop-color="#733770" stop-opacity="1"></stop><stop offset="80%" stop-color="#be4c62" stop-opacity="1"></stop></linearGradient></defs><defs><linearGradient id="grad1_3" x1="33.3%" y1="0%" x2="100%" y2="100%"><stop offset="20%" stop-color="#733770" stop-opacity="1"></stop><stop offset="80%" stop-color="#002b5b" stop-opacity="1"></stop></linearGradient></defs><defs><linearGradient id="grad2_0" x1="0%" y1="0%" x2="66.7%" y2="100%"><stop offset="20%" stop-color="#de8344" stop-opacity="1"></stop><stop offset="80%" stop-color="#de8344" stop-opacity="1"></stop></linearGradient></defs><defs><linearGradient id="grad2_1" x1="0%" y1="0%" x2="66.7%" y2="100%"><stop offset="20%" stop-color="#be4c62" stop-opacity="1"></stop><stop offset="80%" stop-color="#de8344" stop-opacity="1"></stop></linearGradient></defs><defs><linearGradient id="grad2_2" x1="0%" y1="0%" x2="66.7%" y2="100%"><stop offset="20%" stop-color="#be4c62" stop-opacity="1"></stop><stop offset="80%" stop-color="#733770" stop-opacity="1"></stop></linearGradient></defs><defs><linearGradient id="grad2_3" x1="0%" y1="0%" x2="66.7%" y2="100%"><stop offset="20%" stop-color="#002b5b" stop-opacity="1"></stop><stop offset="80%" stop-color="#733770" stop-opacity="1"></stop></linearGradient></defs><g transform="translate(900, 0)"><path d="M0 459.7C-37.5 447.4 -75.1 435.2 -114.1 426C-153.2 416.8 -193.8 410.7 -224.5 388.8C-255.2 367 -276.1 329.5 -298.4 298.4C-320.7 267.3 -344.5 242.5 -371.5 214.5C-398.5 186.5 -428.8 155.3 -444 119C-459.3 82.7 -459.5 41.3 -459.7 0L0 0Z" fill="#43326b"></path><path d="M0 344.8C-28.2 335.6 -56.3 326.4 -85.6 319.5C-114.9 312.6 -145.3 308 -168.4 291.6C-191.4 275.3 -207.1 247.1 -223.8 223.8C-240.5 200.4 -258.4 181.9 -278.6 160.9C-298.9 139.9 -321.6 116.5 -333 89.2C-344.5 62 -344.6 31 -344.8 0L0 0Z" fill="#9d3e6d"></path><path d="M0 229.9C-18.8 223.7 -37.5 217.6 -57.1 213C-76.6 208.4 -96.9 205.3 -112.2 194.4C-127.6 183.5 -138 164.8 -149.2 149.2C-160.4 133.6 -172.3 121.2 -185.8 107.3C-199.3 93.3 -214.4 77.6 -222 59.5C-229.6 41.3 -229.7 20.7 -229.9 0L0 0Z" fill="#d46453"></path><path d="M0 114.9C-9.4 111.9 -18.8 108.8 -28.5 106.5C-38.3 104.2 -48.4 102.7 -56.1 97.2C-63.8 91.8 -69 82.4 -74.6 74.6C-80.2 66.8 -86.1 60.6 -92.9 53.6C-99.6 46.6 -107.2 38.8 -111 29.7C-114.8 20.7 -114.9 10.3 -114.9 0L0 0Z" fill="#de8344"></path></g><g transform="translate(0, 600)"><path d="M0 -459.7C37.5 -440.8 75 -421.9 108.4 -404.7C141.8 -387.5 171.1 -372 209 -362C246.9 -352 293.4 -347.6 325.1 -325.1C356.7 -302.5 373.6 -261.9 388 -224C402.4 -186.1 414.4 -151 426 -114.1C437.5 -77.3 448.6 -38.6 459.7 0L0 0Z" fill="#43326b"></path><path d="M0 -344.8C28.1 -330.6 56.3 -316.5 81.3 -303.5C106.4 -290.6 128.3 -279 156.7 -271.5C185.2 -264 220 -260.7 243.8 -243.8C267.5 -226.9 280.2 -196.4 291 -168C301.8 -139.6 310.8 -113.3 319.5 -85.6C328.1 -58 336.5 -29 344.8 0L0 0Z" fill="#9d3e6d"></path><path d="M0 -229.9C18.8 -220.4 37.5 -211 54.2 -202.4C70.9 -193.8 85.6 -186 104.5 -181C123.4 -176 146.7 -173.8 162.5 -162.5C178.4 -151.3 186.8 -130.9 194 -112C201.2 -93.1 207.2 -75.5 213 -57.1C218.8 -38.6 224.3 -19.3 229.9 0L0 0Z" fill="#d46453"></path><path d="M0 -114.9C9.4 -110.2 18.8 -105.5 27.1 -101.2C35.5 -96.9 42.8 -93 52.2 -90.5C61.7 -88 73.3 -86.9 81.3 -81.3C89.2 -75.6 93.4 -65.5 97 -56C100.6 -46.5 103.6 -37.8 106.5 -28.5C109.4 -19.3 112.2 -9.7 114.9 0L0 0Z" fill="#de8344"></path></g></svg>